<!-- Generated by scripts/generate-readme-overview-art.mjs -->
<svg xmlns="http://www.w3.org/2000/svg" width="1200" height="675" viewBox="0 0 1200 675" role="img" aria-labelledby="pv1pn6m-title pv1pn6m-desc">
  <title id="pv1pn6m-title">Fsq Go Explore project overview</title>
  <desc id="pv1pn6m-desc">Designer-style overview artwork for garethpaul/fsq-go-explore showing purpose, runtime, verification, and project surfaces.</desc>
  <defs>
    <linearGradient id="pv1pn6m-bg" x1="0" y1="0" x2="1" y2="1">
      <stop offset="0%" stop-color="#e1f2f6"/>
      <stop offset="48%" stop-color="#f8fafc"/>
      <stop offset="100%" stop-color="#e0f7e8"/>
    </linearGradient>
    <linearGradient id="pv1pn6m-stage" x1="0" y1="0" x2="1" y2="1">
      <stop offset="0%" stop-color="#0f2f3a"/>
      <stop offset="58%" stop-color="#0d4a5c"/>
      <stop offset="100%" stop-color="#135042"/>
    </linearGradient>
    <linearGradient id="pv1pn6m-accent" x1="0" y1="0" x2="1" y2="1">
      <stop offset="0%" stop-color="#0891b2"/>
      <stop offset="52%" stop-color="#22c55e"/>
      <stop offset="100%" stop-color="#f59e0b"/>
    </linearGradient>
    <linearGradient id="pv1pn6m-soft" x1="0" y1="0" x2="1" y2="1">
      <stop offset="0%" stop-color="#c4e5ed"/>
      <stop offset="100%" stop-color="#fdeac9"/>
    </linearGradient>
    <filter id="pv1pn6m-shadow" x="-20%" y="-20%" width="140%" height="150%">
      <feDropShadow dx="0" dy="18" stdDeviation="18" flood-color="#0f172a" flood-opacity="0.14"/>
    </filter>
    <filter id="pv1pn6m-miniShadow" x="-20%" y="-20%" width="140%" height="150%">
      <feDropShadow dx="0" dy="8" stdDeviation="10" flood-color="#0f172a" flood-opacity="0.12"/>
    </filter>
    <pattern id="pv1pn6m-grid" width="24" height="24" patternUnits="userSpaceOnUse">
      <path d="M24 0H0v24" fill="none" stroke="#94a3b8" stroke-opacity="0.16" stroke-width="1"/>
    </pattern>
    <style>
      .label { font: 700 13px ui-sans-serif, system-ui, -apple-system, BlinkMacSystemFont, "Segoe UI", sans-serif; letter-spacing: 0; text-transform: uppercase; }
      .body { font-family: ui-sans-serif, system-ui, -apple-system, BlinkMacSystemFont, "Segoe UI", sans-serif; letter-spacing: 0; }
    </style>
  </defs>

  <rect width="1200" height="675" fill="url(#pv1pn6m-bg)"/>
  <rect width="1200" height="675" fill="url(#pv1pn6m-grid)" opacity="0.65"/>
  <circle cx="236" cy="618" r="166" fill="#0891b2" opacity="0.10"/>
  <circle cx="982" cy="104" r="192" fill="#22c55e" opacity="0.12"/>
  <path d="M66 560 C214 512 278 642 430 584 C576 528 676 408 838 462 C966 504 1034 426 1134 356" fill="none" stroke="#f59e0b" stroke-width="2" stroke-opacity="0.18"/>

  <rect x="48" y="38" width="1104" height="599" rx="34" fill="#ffffff" opacity="0.94" filter="url(#pv1pn6m-shadow)"/>
  <rect x="49" y="39" width="1102" height="597" rx="33" fill="none" stroke="#e2e8f0" stroke-width="1"/>

  <g class="body">
    <rect x="84" y="76" width="48" height="48" rx="14" fill="url(#pv1pn6m-accent)"/>
    <path d="M4 8l12-5 13 5 11-5v31l-11 5-13-5-12 5z M16 3v31 M29 8v31" transform="translate(98 90)" stroke="#ffffff" stroke-width="4" stroke-linecap="round" stroke-linejoin="round" fill="none"/>
    <text x="148" y="110" fill="#0f172a" font-size="39" font-weight="800">Fsq Go Explore</text>
    <rect x="910" y="78" width="196" height="36" rx="18" fill="#d5ecf2" stroke="#8dccdc"/>
    <circle cx="934" cy="96" r="6" fill="#0891b2"/>
    <text x="950" y="101" fill="#1c3543" font-size="15" font-weight="700">Maps and location</text>
    <text x="86" y="166" fill="#475569" font-size="20" font-weight="500">A Go project. Foursquare GoLang Explore Sample</text>
  </g>

  <g transform="translate(84 222)">
    <rect x="0" y="0" width="622" height="328" rx="28" fill="url(#pv1pn6m-stage)"/>
    <rect x="1" y="1" width="620" height="326" rx="27" fill="none" stroke="#ffffff" stroke-opacity="0.12"/>
    <path d="M34 270 C116 228 166 286 250 236 C338 184 430 214 588 96" fill="none" stroke="#ffffff" stroke-opacity="0.12" stroke-width="2"/>
    <circle cx="76" cy="66" r="58" fill="#0891b2" opacity="0.20"/>
    <circle cx="548" cy="74" r="78" fill="#22c55e" opacity="0.16"/>
    <g class="body">
    <rect x="58" y="46" width="506" height="236" rx="28" fill="#ecfeff" opacity="0.96" filter="url(#pv1pn6m-miniShadow)"/>
    <path d="M88 88 C154 62 190 116 260 92 C332 68 390 94 532 70" fill="none" stroke="#0891b2" stroke-width="16" stroke-linecap="round" opacity="0.22"/>
    <path d="M92 232 C168 166 224 252 306 186 C378 128 438 170 526 126" fill="none" stroke="#22c55e" stroke-width="18" stroke-linecap="round" opacity="0.26"/>
    <path d="M112 72 L172 274 M244 52 L306 282 M392 56 L350 282 M488 70 L430 280" stroke="#0891b2" stroke-opacity="0.12" stroke-width="3"/>
    <path d="M78 160 H548 M88 218 H534 M108 104 H526" stroke="#0f766e" stroke-opacity="0.10" stroke-width="3"/>
    <path d="M118 240 C198 210 208 158 282 156 C350 154 374 104 476 96" fill="none" stroke="#f59e0b" stroke-width="7" stroke-linecap="round"/>
    <path d="M118 208c-17 0-30 13-30 30 0 24 30 48 30 48s30-24 30-48c0-17-13-30-30-30z" fill="#0891b2"/><circle cx="118" cy="238" r="10" fill="#ffffff" opacity="0.9"/>
    <path d="M282 124c-17 0-30 13-30 30 0 24 30 48 30 48s30-24 30-48c0-17-13-30-30-30z" fill="#22c55e"/><circle cx="282" cy="154" r="10" fill="#ffffff" opacity="0.9"/>
    <path d="M476 64c-17 0-30 13-30 30 0 24 30 48 30 48s30-24 30-48c0-17-13-30-30-30z" fill="#f59e0b"/><circle cx="476" cy="94" r="10" fill="#ffffff" opacity="0.9"/>
    <rect x="354" y="196" width="158" height="50" rx="16" fill="#ffffff" opacity="0.92"/>
    <text x="378" y="226" fill="#0f172a" font-size="17" font-weight="800">location layer</text>
    <circle cx="104" cy="82" r="22" fill="#ffffff" opacity="0.88"/>
    <circle cx="110" cy="88" r="15" stroke="#0891b2" stroke-width="4" stroke-linecap="round" stroke-linejoin="round" fill="none"/><path d="M23 13l-4 12-8 4 4-12z" transform="translate(92 70)" fill="#0891b2"/>
  </g>
  </g>

  <g class="body" transform="translate(742 222)">
    <rect x="0" y="0" width="364" height="302" rx="26" fill="#f8fafc" stroke="#e2e8f0"/>
    <rect x="22" y="22" width="320" height="52" rx="18" fill="#ffffff" stroke="#e5e7eb"/>
    <text x="44" y="55" fill="#0f172a" font-size="20" font-weight="800">Project system map</text>
    <g transform="translate(24 94)">
      <circle cx="10" cy="15" r="6" fill="#0891b2"/>
      <text x="28" y="11" fill="#64748b" font-size="12" font-weight="800">STACK</text>
      <text x="28" y="34" fill="#1f2937" font-size="15" font-weight="650">Go</text>
    </g>
<g transform="translate(24 145)">
      <circle cx="10" cy="15" r="6" fill="#22c55e"/>
      <text x="28" y="11" fill="#64748b" font-size="12" font-weight="800">SURFACE</text>
      <text x="28" y="34" fill="#1f2937" font-size="15" font-weight="650">Docs: README and project notes</text>
    </g>
<g transform="translate(24 196)">
      <circle cx="10" cy="15" r="6" fill="#f59e0b"/>
      <text x="28" y="11" fill="#64748b" font-size="12" font-weight="800">VERIFY</text>
      <text x="28" y="34" fill="#1f2937" font-size="15" font-weight="650">make lint</text>
    </g>
<g transform="translate(24 247)">
      <circle cx="10" cy="15" r="6" fill="#0891b2"/>
      <text x="28" y="11" fill="#64748b" font-size="12" font-weight="800">FOCUS</text>
      <text x="28" y="34" fill="#1f2937" font-size="15" font-weight="650">repeatable checks + credential hygiene</text>
    </g>
  </g>
  <g class="body">
    <rect x="84" y="574" width="180.4" height="30" rx="15" fill="#d7edf3" stroke="#97d1df"/>
    <text x="100" y="594" fill="#0b637e" font-size="13" font-weight="800">Maps and location</text>
<rect x="274.4" y="574" width="92" height="30" rx="15" fill="#dcf6e5" stroke="#a2e7bb"/>
    <text x="290.4" y="594" fill="#1b834a" font-size="13" font-weight="800">Go</text>
<rect x="376.4" y="574" width="92" height="30" rx="15" fill="#fdefd8" stroke="#fbd699"/>
    <text x="392.4" y="594" fill="#9e6b17" font-size="13" font-weight="800">Docs</text>
<rect x="478.4" y="574" width="180.4" height="30" rx="15" fill="#d7edf3" stroke="#97d1df"/>
    <text x="494.4" y="594" fill="#0b637e" font-size="13" font-weight="800">repeatable checks</text>
  </g>

  <g class="body">
    <text x="84" y="613" fill="#64748b" font-size="15" font-weight="600">garethpaul/fsq-go-explore</text>
    <text x="1008" y="613" fill="#94a3b8" font-size="14" text-anchor="end">Source-aware README artwork</text>
    <circle cx="1028" cy="609" r="4" fill="#0891b2"/>
    <circle cx="1044" cy="609" r="4" fill="#22c55e"/>
    <circle cx="1060" cy="609" r="4" fill="#f59e0b"/>
  </g>
</svg>
